HIERARCHY
ROOT hip
{
  OFFSET 0 0 0
  CHANNELS 6 Xposition Yposition Zposition Zrotation Yrotation Xrotation
  JOINT abdomen
  {
    OFFSET 0 20.6881 -0.73152
    CHANNELS 3 Zrotation Xrotation Yrotation
    JOINT chest
    {
      OFFSET 0 11.7043 -0.48768
      CHANNELS 3 Zrotation Xrotation Yrotation
      JOINT neck
      {
        OFFSET 0 22.1894 -2.19456
        CHANNELS 3 Zrotation Xrotation Yrotation
        JOINT head
        {
          OFFSET -0.24384 7.07133 1.2192
          CHANNELS 3 Zrotation Xrotation Yrotation
          JOINT leftEye
          {
            OFFSET 4.14528 8.04674 8.04672
            CHANNELS 3 Zrotation Xrotation Yrotation
            End Site
            {
              OFFSET 1 0 0
            }
          }
          JOINT rightEye
          {
            OFFSET -3.6576 8.04674 8.04672
            CHANNELS 3 Zrotation Xrotation Yrotation
            End Site
            {
              OFFSET 1 0 0
            }
          }
        }
      }
      JOINT rCollar
      {
        OFFSET -2.68224 19.2634 -4.8768
        CHANNELS 3 Zrotation Xrotation Yrotation
        JOINT rShldr
        {
          OFFSET -8.77824 -1.95073 1.46304
          CHANNELS 3 Zrotation Xrotation Yrotation
          JOINT rForeArm
          {
            OFFSET -28.1742 -1.7115 0.48768
            CHANNELS 3 Zrotation Xrotation Yrotation
            JOINT rHand
            {
              OFFSET -22.5879 0.773209 7.07136
              CHANNELS 3 Zrotation Xrotation Yrotation
              JOINT rThumb1
              {
                OFFSET -1.2192 -0.487915 3.41376
                CHANNELS 3 Zrotation Xrotation Yrotation
                JOINT rThumb2
                {
                  OFFSET -3.37035 -0.52449 3.41376
                  CHANNELS 3 Zrotation Xrotation Yrotation
                  End Site
                  {
                    OFFSET -1.78271 -1.18214 1.43049
                  }
                }
              }
              JOINT rIndex1
              {
                OFFSET -7.75947 0.938293 5.60832
                CHANNELS 3 Zrotation Xrotation Yrotation
                JOINT rIndex2
                {
                  OFFSET -2.54057 -0.884171 1.56538
                  CHANNELS 3 Zrotation Xrotation Yrotation
                  End Site
                  {
                    OFFSET -1.62519 -0.234802 1.16502
                  }
                }
              }
              JOINT rMid1
              {
                OFFSET -8.24714 1.18213 3.41376
                CHANNELS 3 Zrotation Xrotation Yrotation
                JOINT rMid2
                {
                  OFFSET -3.10165 -0.590103 1.0647
                  CHANNELS 3 Zrotation Xrotation Yrotation
                  End Site
                  {
                    OFFSET -2.48547 -0.328903 0.83742
                  }
                }
              }
              JOINT rRing1
              {
                OFFSET -8.82822 0.546677 1.51678
                CHANNELS 3 Zrotation Xrotation Yrotation
                JOINT rRing2
                {
                  OFFSET -2.60934 -0.819778 -0.0198488
                  CHANNELS 3 Zrotation Xrotation Yrotation
                  End Site
                  {
                    OFFSET -2.33842 -0.294052 0.168128
                  }
                }
              }
              JOINT rPinky1
              {
                OFFSET -8.27202 -0.0477905 -0.4584
                CHANNELS 3 Zrotation Xrotation Yrotation
                JOINT rPinky2
                {
                  OFFSET -1.82734 -0.647385 -0.700984
                  CHANNELS 3 Zrotation Xrotation Yrotation
                  End Site
                  {
                    OFFSET -1.69225 -0.51767 -0.607171
                  }
                }
              }
            }
          }
        }
      }
      JOINT lCollar
      {
        OFFSET 2.68224 19.2634 -4.8768
        CHANNELS 3 Zrotation Xrotation Yrotation
        JOINT lShldr
        {
          OFFSET 8.77824 -1.95073 1.46304
          CHANNELS 3 Zrotation Xrotation Yrotation
          JOINT lForeArm
          {
            OFFSET 28.1742 -1.7115 0.48768
            CHANNELS 3 Zrotation Xrotation Yrotation
            JOINT lHand
            {
              OFFSET 22.5879 0.773209 7.07136
              CHANNELS 3 Zrotation Xrotation Yrotation
              JOINT lThumb1
              {
                OFFSET 1.2192 -0.487915 3.41376
                CHANNELS 3 Zrotation Xrotation Yrotation
                JOINT lThumb2
                {
                  OFFSET 3.37035 -0.52449 3.41376
                  CHANNELS 3 Zrotation Xrotation Yrotation
                  End Site
                  {
                    OFFSET 1.78271 -1.18214 1.43049
                  }
                }
              }
              JOINT lIndex1
              {
                OFFSET 7.75947 0.938293 5.60832
                CHANNELS 3 Zrotation Xrotation Yrotation
                JOINT lIndex2
                {
                  OFFSET 2.54057 -0.884171 1.56538
                  CHANNELS 3 Zrotation Xrotation Yrotation
                  End Site
                  {
                    OFFSET 1.62519 -0.234802 1.16502
                  }
                }
              }
              JOINT lMid1
              {
                OFFSET 8.24714 1.18213 3.41376
                CHANNELS 3 Zrotation Xrotation Yrotation
                JOINT lMid2
                {
                  OFFSET 3.10165 -0.590103 1.0647
                  CHANNELS 3 Zrotation Xrotation Yrotation
                  End Site
                  {
                    OFFSET 2.48547 -0.328903 0.83742
                  }
                }
              }
              JOINT lRing1
              {
                OFFSET 8.82822 0.546677 1.51678
                CHANNELS 3 Zrotation Xrotation Yrotation
                JOINT lRing2
                {
                  OFFSET 2.60934 -0.819778 -0.0198488
                  CHANNELS 3 Zrotation Xrotation Yrotation
                  End Site
                  {
                    OFFSET 2.33842 -0.294052 0.168128
                  }
                }
              }
              JOINT lPinky1
              {
                OFFSET 8.27202 -0.0477905 -0.4584
                CHANNELS 3 Zrotation Xrotation Yrotation
                JOINT lPinky2
                {
                  OFFSET 1.82734 -0.647385 -0.700984
                  CHANNELS 3 Zrotation Xrotation Yrotation
                  End Site
                  {
                    OFFSET 1.69225 -0.51767 -0.607171
                  }
                }
              }
            }
          }
        }
      }
    }
  }
  JOINT rButtock
  {
    OFFSET -8.77824 4.35084 1.2192
    CHANNELS 3 Zrotation Xrotation Yrotation
    JOINT rThigh
    {
      OFFSET 0 -1.70687 -2.19456
      CHANNELS 3 Zrotation Xrotation Yrotation
      JOINT rShin
      {
        OFFSET 0 -36.8199 0.73152
        CHANNELS 3 Zrotation Xrotation Yrotation
        JOINT rFoot
        {
          OFFSET 0.73152 -45.1104 -5.12064
          CHANNELS 3 Zrotation Xrotation Yrotation
          End Site
          {
            OFFSET -1.1221 -3.69964 12.103
          }
        }
      }
    }
  }
  JOINT lButtock
  {
    OFFSET 8.77824 4.35084 1.2192
    CHANNELS 3 Zrotation Xrotation Yrotation
    JOINT lThigh
    {
      OFFSET 0 -1.70687 -2.19456
      CHANNELS 3 Zrotation Xrotation Yrotation
      JOINT lShin
      {
        OFFSET 0 -36.8199 0.73152
        CHANNELS 3 Zrotation Xrotation Yrotation
        JOINT lFoot
        {
          OFFSET -0.73152 -45.1104 -5.12064
          CHANNELS 3 Zrotation Xrotation Yrotation
          End Site
          {
            OFFSET 1.1221 -3.69964 12.103
          }
        }
      }
    }
  }
}
MOTION
Frames:	6
Frame Time:	0.00833333
14.7979 64.8181 244.738 0.0 0.0 0.0 1.57502 -0.00270808 0.0428958 0.434162 0.00151579 0.0751867 -6.52344e-14 -7.95139e-16 1.73937e-16 -1.95048e-13 3.18055e-15 5.20257e-16 -0.0 0.0 0.0 -0.0 0.0 0.0 -3.26523e-14 8.658e-17 1.98785e-16 -6.79711e-13 1.94436e-15 7.95139e-16 -1.17643e-11 3.57554e-12 1.17681e-13 -1.34538e-10 -3.1859e-12 2.19458e-13 -3.17371e-10 8.41968e-13 7.79236e-13 -5.48088e-10 1.45669e-12 1.33504e-12 -3.17366e-10 8.43642e-13 7.66514e-13 7.73091 5.47488 0.417314 -3.1737e-10 8.42549e-13 7.72875e-13 2.90554 0.965183 0.102902 -3.17362e-10 8.42449e-13 7.67309e-13 10.2786 0.731801 0.0259123 -3.17373e-10 8.42052e-13 7.76055e-13 2.22167 -0.733487 -0.20892 -3.26506e-14 8.71624e-17 0.0 -6.85944e-13 2.26118e-15 -1.19271e-15 -1.17503e-11 -3.45528e-12 1.7175e-13 -1.3455e-10 3.86087e-12 1.59028e-13 -3.17366e-10 8.72718e-13 7.66514e-13 -5.48069e-10 1.50122e-12 1.34378e-12 -3.17371e-10 8.75448e-13 7.76055e-13 -7.73091 5.47488 -0.417314 -3.17366e-10 8.72665e-13 7.69694e-13 -2.90554 0.965183 -0.102902 -3.1738e-10 8.73559e-13 7.72875e-13 -10.2786 0.731801 -0.0259123 -3.17365e-10 8.72665e-13 7.69694e-13 -2.22167 -0.733487 0.20892 -2.03217e-16 0.0 -3.88251e-19 1.70468 -6.60402 -0.159325 0.00258803 6.39967 0.0733726 -0.527848 0.199745 0.0640696 2.03217e-16 0.0 3.88251e-19 0.692076 -1.9236 0.00558074 0.00917707 -2.07857 0.075742 0.502905 3.99746 -0.138947
16.684 61.4863 242.804 -172.517 -8.7959 -150.702 3.23593 8.86348 0.954096 -0.478425 -3.35599 0.17123 -1.12849 0.816432 -1.10362 2.238 -10.0127 -1.60107 -0.0 0.0 0.0 -0.0 0.0 0.0 -9.81019e-15 -7.74459e-15 4.39788e-14 21.3474 10.161 0.570676 -12.508 -9.48934 13.669 0.000128292 -0.281596 -0.0395749 -5.69743e-10 1.68987e-10 -2.92121e-12 -9.8515e-10 2.92013e-10 -4.34885e-12 -5.69737e-10 1.68986e-10 -2.93394e-12 7.73091 5.47488 0.417314 -5.69742e-10 1.68986e-10 -2.9286e-12 2.90554 0.965183 0.102902 -5.69734e-10 1.68986e-10 -2.93464e-12 10.2786 0.731801 0.0259123 -5.69747e-10 1.68986e-10 -2.92942e-12 2.22167 -0.733487 -0.20892 -9.81817e-15 -7.73376e-15 4.37641e-14 -20.3695 10.7991 -0.504864 9.07152 -5.93958 -11.65 5.4043e-06 -0.0814937 0.0114531 -4.64914e-10 6.71474e-11 -2.40273e-10 -8.02547e-10 1.16409e-10 -4.15908e-10 -4.64919e-10 6.71511e-11 -2.40265e-10 -7.73091 5.47488 -0.417314 -4.64913e-10 6.71491e-11 -2.4027e-10 -2.90554 0.965183 -0.102902 -4.64926e-10 6.71498e-11 -2.40269e-10 -10.2786 0.731801 -0.0259123 -4.64912e-10 6.71495e-11 -2.40275e-10 -2.22167 -0.733487 0.20892 -2.03217e-16 0.0 -3.88251e-19 1.92046 -11.2851 -3.51542 0.294539 22.7559 0.425222 -0.502123 0.488054 -2.31465 2.03217e-16 0.0 3.88251e-19 2.84452 -24.2912 1.04632 0.106967 17.2342 -0.144285 0.157576 0.0325842 -2.03172
16.2857 61.6011 241.225 -173.23 -8.839 -150.468 4.68574 18.2257 2.01112 -1.439 -6.90606 0.278331 -2.28846 1.67913 -2.27461 3.96266 -20.5743 -3.47014 -0.0 0.0 0.0 -0.0 0.0 0.0 1.06229e-14 -1.54781e-14 9.45656e-14 43.6809 20.9253 1.26392 -20.7706 -17.6461 29.2065 -0.000176604 -0.56462 -0.0793542 -8.45475e-10 3.60651e-10 -2.30195e-11 -1.46271e-09 6.23191e-10 -3.81998e-11 -8.45469e-10 3.60648e-10 -2.30322e-11 7.73091 5.47488 0.417314 -8.45476e-10 3.60649e-10 -2.3028e-11 2.90554 0.965183 0.102902 -8.45467e-10 3.60647e-10 -2.30347e-11 10.2786 0.731801 0.0259123 -8.4548e-10 3.60648e-10 -2.30334e-11 2.22167 -0.733487 -0.20892 1.06042e-14 -1.54562e-14 9.43326e-14 -41.6994 22.2085 -1.08357 16.0533 -11.3777 -24.3295 6.0294e-05 -0.178762 0.0251233 -6.18349e-10 1.42935e-10 -5.03127e-10 -1.06717e-09 2.47822e-10 -8.70991e-10 -6.18354e-10 1.42939e-10 -5.03121e-10 -7.73091 5.47488 -0.417314 -6.18346e-10 1.42938e-10 -5.03125e-10 -2.90554 0.965183 -0.102902 -6.18358e-10 1.42939e-10 -5.03125e-10 -10.2786 0.731801 -0.0259123 -6.18346e-10 1.42939e-10 -5.03135e-10 -2.22167 -0.733487 0.20892 -2.03217e-16 0.0 -3.88251e-19 1.57617 -15.9536 -7.15665 0.321144 39.8823 0.953959 -0.44152 0.865185 -4.82032 2.03217e-16 0.0 3.88251e-19 6.43858 -47.9549 2.91904 0.405744 37.6206 -0.458039 -0.486009 -4.0802 -4.02605
15.8604 61.6826 239.58 -174.123 -9.0702 -150.474 5.62637 26.5666 3.06634 -2.2693 -10.0709 0.368109 -3.29109 2.44566 -3.31354 4.81815 -29.9368 -5.46038 -0.0 0.0 0.0 -0.0 0.0 0.0 3.5874e-14 -2.34069e-14 1.31539e-13 63.3523 30.4699 1.9553 -24.4256 -21.8564 44.3323 -0.000782242 -0.844787 -0.118736 -1.07449e-09 5.05277e-10 -1.03221e-11 -1.85927e-09 8.73127e-10 -1.57166e-11 -1.07448e-09 5.05272e-10 -1.03348e-11 7.73091 5.47488 0.417314 -1.07449e-09 5.05274e-10 -1.03315e-11 2.90554 0.965183 0.102902 -1.07448e-09 5.05272e-10 -1.03385e-11 10.2786 0.731801 0.0259123 -1.07449e-09 5.05274e-10 -1.03404e-11 2.22167 -0.733487 -0.20892 3.58468e-14 -2.33756e-14 1.31292e-13 -60.4485 32.3863 -1.76189 20.27 -14.8609 -36.1476 0.000113955 -0.244481 0.0343597 -7.6001e-10 1.99697e-10 -7.22351e-10 -1.3115e-09 3.46226e-10 -1.25041e-09 -7.60014e-10 1.99702e-10 -7.22347e-10 -7.73091 5.47488 -0.417314 -7.60006e-10 1.99702e-10 -7.2235e-10 -2.90554 0.965183 -0.102902 -7.60016e-10 1.99702e-10 -7.22352e-10 -10.2786 0.731801 -0.0259123 -7.60007e-10 1.99703e-10 -7.22365e-10 -2.22167 -0.733487 0.20892 -2.03217e-16 0.0 -3.88251e-19 0.616186 -20.3791 -10.7026 -0.141812 55.4565 1.81763 -0.379062 1.05776 -7.07304 2.03217e-16 0.0 3.88251e-19 13.2526 -68.853 7.92159 1.01268 55.8557 -1.00632 -1.32275 -7.85619 -5.87326
15.4578 61.8869 237.95 -174.871 -9.1215 -150.313 6.00716 32.3841 3.8328 -2.80077 -12.2726 0.409805 -3.96751 2.97528 -4.01973 4.91601 -36.3985 -7.13217 -0.0 0.0 0.0 -0.0 0.0 0.0 7.31701e-14 -3.18238e-14 1.34478e-13 76.9397 36.9804 2.38413 -25.6257 -22.5097 55.2657 -0.00153269 -1.11781 -0.157119 -1.1867e-09 5.3231e-10 8.43642e-11 -2.05335e-09 9.1996e-10 1.47602e-10 -1.18669e-09 5.32304e-10 8.43515e-11 7.73091 5.47488 0.417314 -1.1867e-09 5.32307e-10 8.43547e-11 2.90554 0.965183 0.102902 -1.18669e-09 5.32304e-10 8.43483e-11 10.2786 0.731801 0.0259123 -1.18671e-09 5.32307e-10 8.43451e-11 2.22167 -0.733487 -0.20892 7.314e-14 -3.17873e-14 1.34229e-13 -73.1924 39.4933 -2.48278 22.3261 -16.2549 -44.6801 6.56292e-05 -0.231327 0.032511 -8.72237e-10 2.08896e-10 -8.32501e-10 -1.50509e-09 3.62109e-10 -1.44067e-09 -8.72241e-10 2.08902e-10 -8.32497e-10 -7.73091 5.47488 -0.417314 -8.72232e-10 2.08902e-10 -8.32501e-10 -2.90554 0.965183 -0.102902 -8.72241e-10 2.08902e-10 -8.32503e-10 -10.2786 0.731801 -0.0259123 -8.72233e-10 2.08903e-10 -8.32517e-10 -2.22167 -0.733487 0.20892 -2.03217e-16 0.0 -3.88251e-19 -0.824911 -24.395 -13.6993 -1.26109 67.1578 3.15857 -0.392009 0.798722 -8.6919 2.03217e-16 0.0 3.88251e-19 34.6657 -82.5884 28.0872 2.03396 68.7147 -1.9544 -2.11954 -10.8277 -7.29565
15.1334 61.9342 236.383 -175.21 -8.94 -149.861 5.99138 34.6775 3.95513 -2.92408 -13.1189 0.379979 -4.22529 3.18057 -4.25994 4.8141 -38.8929 -7.81065 -0.0 0.0 0.0 -0.0 0.0 0.0 1.47137e-13 -4.2862e-14 7.80261e-14 82.337 39.2567 2.23448 -26.0202 -22.329 59.797 -0.00236722 -1.37534 -0.19333 -1.14096e-09 3.66439e-10 3.33297e-10 -1.9733e-09 6.33631e-10 5.75888e-10 -1.14095e-09 3.66431e-10 3.33284e-10 7.73091 5.47488 0.417314 -1.14096e-09 3.66435e-10 3.33288e-10 2.90554 0.965183 0.102902 -1.14095e-09 3.66432e-10 3.33284e-10 10.2786 0.731801 0.0259123 -1.14097e-09 3.66436e-10 3.33282e-10 2.22167 -0.733487 -0.20892 1.47118e-13 -4.28265e-14 7.78001e-14 -77.8133 42.3232 -3.08352 23.0306 -16.6014 -48.2208 -7.01152e-05 -0.105269 0.0147944 -1.01364e-09 1.27693e-10 -7.82325e-10 -1.7492e-09 2.21196e-10 -1.35266e-09 -1.01364e-09 1.27699e-10 -7.82322e-10 -7.73091 5.47488 -0.417314 -1.01363e-09 1.27699e-10 -7.82325e-10 -2.90554 0.965183 -0.102902 -1.01364e-09 1.27699e-10 -7.82328e-10 -10.2786 0.731801 -0.0259123 -1.01363e-09 1.27701e-10 -7.82339e-10 -2.22167 -0.733487 0.20892 -2.03217e-16 0.0 -3.88251e-19 -2.52195 -27.9522 -15.8027 -2.54557 73.5315 4.4978 -0.545578 -0.112517 -9.435 2.03217e-16 0.0 3.88251e-19 76.1762 -86.0045 69.4886 2.92198 74.0385 -2.8126 -2.62902 -12.7199 -8.08975
